<?xml version="1.0" standalone="no"?><!DOCTYPE svg PUBLIC "-//W3C//DTD SVG 1.1//EN" "http://www.w3.org/Graphics/SVG/1.1/DTD/svg11.dtd"><svg t="1577430982248" class="icon" viewBox="0 0 1024 1024" version="1.1" xmlns="http://www.w3.org/2000/svg" p-id="5167" xmlns:xlink="http://www.w3.org/1999/xlink" width="200" height="200"><defs><style type="text/css"></style></defs><path d="M538.197 0.213h65.92v107.094c124.288 0.725 248.662-1.323 372.907 0a40.661 40.661 0 0 1 45.013 46.08c2.048 222.165 0 444.458 1.195 666.794-1.195 24.064 2.304 50.646-11.179 72.15-16.981 12.032-38.954 10.965-58.965 12.032-116.181-0.598-232.405 0-348.843 0v118.4h-72.192C354.773 990.165 177.323 959.957 0 928V95.659C179.37 63.872 358.741 31.488 538.197 0.213z m65.92 142.806l0.256 118.869c18.987-4.224 37.974-8.32 57.174-12.032 1.536 51.627 0.938 103.339 0.938 155.05h153.003c-3.84 51.371-27.05 102.827-71.595 129.92-41.13 28.289-93.568 28.63-139.648 14.08v69.889h278.87v46.933H604.117v60.16h278.998v47.488H604.117v95.147h383.531V143.019h-383.53zM186.453 314.453c-1.45 127.147-1.194 254.294 0.598 381.355l69.162 5.888V562.133c28.63 1.067 58.966 2.902 85.334-10.965 74.24-37.12 87.466-151.552 37.376-213.888-52.907-48.341-129.28-19.712-192.427-22.827z m499.2-89.728A165.547 165.547 0 0 1 838.7 381.1c-50.987 0.597-101.974 0-153.131 0 0.128-52.352 0.128-104.192 0.128-156.374z m-430.122 154.07c22.869-0.939 51.285-5.291 66.688 16.725 12.672 24.32 13.226 53.248 1.536 78.08-13.227 24.064-43.179 22.016-66.39 24.917-2.432-39.85-2.176-79.658-1.834-119.722z" fill="#ffffff" p-id="5168"></path></svg>